<svg xmlns="http://www.w3.org/2000/svg" width="668" height="668" fill="none"><path fill="#fdd835" d="M667.204 366.711a334.42 334.42 0 0 1-112.782 218.067 334.476 334.476 0 0 1-231.306 82.312 334.437 334.437 0 0 1-225.187-97.803A334.5 334.5 0 0 1 .189 344.061a334.472 334.472 0 0 1 82.38-231.28A334.463 334.463 0 0 1 300.676.067a10.981 10.981 0 0 1 11.646 7.49 10.984 10.984 0 0 1-4.948 12.932 247.623 247.623 0 0 0-98.588 110.146 247.632 247.632 0 0 0-18.26 146.693 247.617 247.617 0 0 0 68.584 130.953 247.576 247.576 0 0 0 130.978 68.536 247.604 247.604 0 0 0 146.694-18.302 247.63 247.63 0 0 0 110.114-98.626 10.98 10.98 0 0 1 20.313 6.698l-.005.124Z"/></svg>