<svg xmlns="http://www.w3.org/2000/svg" width="703" height="702" fill="none"><path fill="#101010" d="M538.333 350.935c0 103.093-83.573 186.666-186.666 186.666C248.573 537.601 165 454.028 165 350.935c0-103.094 83.573-186.667 186.667-186.667 103.093 0 186.666 83.573 186.666 186.667ZM351.667 134.401c20.61 0 37.334-16.724 37.334-37.333V37.333C389.001 16.724 372.277 0 351.667 0c-20.609 0-37.333 16.724-37.333 37.333v59.735c0 20.609 16.724 37.333 37.333 37.333ZM351.667 567.468c-20.609 0-37.333 16.724-37.333 37.333v59.735c0 20.609 16.724 37.333 37.333 37.333 20.61 0 37.334-16.724 37.334-37.333v-59.735c0-20.609-16.724-37.333-37.334-37.333ZM665.267 313.602h-59.734c-20.61 0-37.334 16.724-37.334 37.333 0 20.609 16.724 37.333 37.334 37.333h59.734c20.61 0 37.334-16.724 37.334-37.333 0-20.609-16.724-37.333-37.334-37.333ZM135.134 350.935c0-20.609-16.724-37.333-37.334-37.333H38.066c-20.61 0-37.334 16.724-37.334 37.333 0 20.609 16.724 37.333 37.334 37.333H97.8c20.61 0 37.334-16.724 37.334-37.333ZM531.16 208.775c10.005 0 19.412-3.881 26.432-10.901l42.26-42.26c14.484-14.484 14.484-38.23 0-52.864-14.636-14.636-38.229-14.484-52.864 0l-42.26 42.26c-7.021 7.02-10.901 16.426-10.901 26.432 0 10.005 3.88 19.265 10.901 26.432 7.021 7.166 16.427 10.901 26.432 10.901ZM145.733 504.001l-42.26 42.26c-14.484 14.484-14.484 38.23 0 52.864 7.318 7.318 16.875 10.901 26.432 10.901 9.558 0 19.115-3.583 26.432-10.901l42.26-42.26c7.021-7.02 10.901-16.426 10.901-26.432 0-10.005-3.88-19.265-10.901-26.432-14.188-14.188-38.677-14.188-52.864 0ZM145.733 197.868c7.021 7.021 16.427 10.901 26.432 10.901 10.006 0 19.266-3.88 26.432-10.901 7.167-7.021 10.901-16.426 10.901-26.432 0-10.005-3.88-19.412-10.901-26.432l-42.26-42.26c-14.484-14.484-38.229-14.636-52.864 0-14.484 14.484-14.484 38.23 0 52.864l42.26 42.26ZM557.6 504.001c-14.036-14.036-38.677-14.188-52.864 0-7.021 7.021-10.901 16.427-10.901 26.432 0 10.005 3.88 19.412 10.901 26.432l42.26 42.26c7.318 7.318 16.875 10.901 26.432 10.901 9.557 0 19.115-3.583 26.432-10.901 14.484-14.484 14.484-38.229 0-52.864l-42.26-42.26Z"/></svg>